<svg width="500" height="500" viewBox="0 0 500 500" fill="none" xmlns="http://www.w3.org/2000/svg">
  <path d="M454.557 10H45.462C25.878 10 10 25.398 10 44.387v411.207C10 474.602 25.878 490 45.462 490h409.095C474.141 490 490 474.582 490 455.594V44.387C490 25.398 474.141 10 454.557 10" fill="#06C54F"/>
  <path d="m230 90-10-20-10 20-20 2.5 16.68 14.16L200 130l20-13.32L240 130l-6.68-23.34L250 92.5zm166.68 213.32L380 270l-16.68 33.32L330 307.5l27.78 23.62-11.1 38.88L380 347.78 413.32 370l-11.1-38.88L430 307.5zM143.34 136.66 130 110l-13.34 26.66L90 140l22.22 18.88-8.88 31.12L130 172.22 156.66 190l-8.88-31.12L170 140zM78.28 350c0 10.68 4.16 20.72 11.72 28.28L121.72 410c7.56 7.56 17.6 11.72 28.28 11.72s20.72-4.16 28.28-11.72L410 178.28c7.56-7.56 11.72-17.6 11.72-28.28s-4.16-20.72-11.72-28.28L378.28 90c-15.12-15.12-41.44-15.12-56.56 0L90 321.72c-7.56 7.56-11.72 17.6-11.72 28.28M350 118.28 381.72 150 310 221.72 278.28 190z" fill="#fff"/>
</svg>
