<svg width="1080" height="1080" viewBox="0 0 1080 1080" fill="none" xmlns="http://www.w3.org/2000/svg">
<path d="M628.186 462H491.821C485.293 462 480 467.133 480 473.462V610.531C480 616.867 485.293 622 491.821 622H628.186C634.714 622 640 616.861 640 610.531V473.462C640 467.133 634.714 462 628.186 462Z" fill="#06C54F"/>
<path d="M553.333 488.667L550 482L546.667 488.667L540 489.5L545.56 494.22L543.333 502L550 497.56L556.667 502L554.44 494.22L560 489.5L553.333 488.667ZM608.893 559.773L603.333 548.667L597.773 559.773L586.667 561.167L595.927 569.04L592.227 582L603.333 574.593L614.44 582L610.74 569.04L620 561.167L608.893 559.773ZM524.447 504.22L520 495.333L515.553 504.22L506.667 505.333L514.073 511.627L511.113 522L520 516.073L528.887 522L525.927 511.627L533.333 505.333L524.447 504.22ZM502.76 575.333C502.76 578.893 504.147 582.24 506.667 584.76L517.24 595.333C519.76 597.853 523.107 599.24 526.667 599.24C530.227 599.24 533.573 597.853 536.093 595.333L613.333 518.093C615.853 515.573 617.24 512.227 617.24 508.667C617.24 505.107 615.853 501.76 613.333 499.24L602.76 488.667C597.72 483.627 588.947 483.627 583.907 488.667L506.667 565.907C504.147 568.427 502.76 571.773 502.76 575.333ZM593.333 498.093L603.907 508.667L580 532.573L569.427 522L593.333 498.093Z" fill="white"/>
<rect x="184.5" y="265.5" width="108" height="58" rx="7.5" fill="white"/>
<rect x="184.5" y="265.5" width="108" height="58" rx="7.5" stroke="black"/>
<path d="M195.273 286.261V282.727H213.841V286.261H206.648V306H202.466V286.261H195.273ZM221.636 282.727V306H217.42V282.727H221.636ZM225.179 286.261V282.727H243.747V286.261H236.554V306H232.372V286.261H225.179ZM247.327 306V282.727H251.543V302.466H261.793V306H247.327ZM265.452 306V282.727H280.588V286.261H269.668V292.58H279.804V296.114H269.668V302.466H280.679V306H265.452Z" fill="black"/>
<rect x="698.5" y="224.5" width="235" height="58" rx="7.5" fill="white"/>
<rect x="698.5" y="224.5" width="235" height="58" rx="7.5" stroke="black"/>
<path d="M718.182 265H710.295V241.727H718.341C720.652 241.727 722.636 242.193 724.295 243.125C725.962 244.049 727.242 245.379 728.136 247.114C729.03 248.848 729.477 250.924 729.477 253.341C729.477 255.765 729.027 257.848 728.125 259.591C727.231 261.333 725.939 262.67 724.25 263.602C722.568 264.534 720.545 265 718.182 265ZM714.511 261.352H717.977C719.598 261.352 720.951 261.057 722.034 260.466C723.117 259.867 723.932 258.977 724.477 257.795C725.023 256.606 725.295 255.121 725.295 253.341C725.295 251.561 725.023 250.083 724.477 248.909C723.932 247.727 723.125 246.845 722.057 246.261C720.996 245.67 719.678 245.375 718.102 245.375H714.511V261.352ZM733.483 265V241.727H748.619V245.261H737.699V251.58H747.835V255.114H737.699V261.466H748.71V265H733.483ZM765.568 248.125C765.462 247.133 765.015 246.36 764.227 245.807C763.447 245.254 762.432 244.977 761.182 244.977C760.303 244.977 759.549 245.11 758.92 245.375C758.292 245.64 757.811 246 757.477 246.455C757.144 246.909 756.973 247.428 756.966 248.011C756.966 248.496 757.076 248.917 757.295 249.273C757.523 249.629 757.83 249.932 758.216 250.182C758.602 250.424 759.03 250.629 759.5 250.795C759.97 250.962 760.443 251.102 760.92 251.216L763.102 251.761C763.981 251.966 764.826 252.242 765.636 252.591C766.455 252.939 767.186 253.379 767.83 253.909C768.481 254.439 768.996 255.08 769.375 255.83C769.754 256.58 769.943 257.458 769.943 258.466C769.943 259.83 769.595 261.03 768.898 262.068C768.201 263.098 767.193 263.905 765.875 264.489C764.564 265.064 762.977 265.352 761.114 265.352C759.303 265.352 757.731 265.072 756.398 264.511C755.072 263.951 754.034 263.133 753.284 262.057C752.542 260.981 752.14 259.67 752.08 258.125H756.227C756.288 258.936 756.538 259.61 756.977 260.148C757.417 260.686 757.989 261.087 758.693 261.352C759.405 261.617 760.201 261.75 761.08 261.75C761.996 261.75 762.799 261.614 763.489 261.341C764.186 261.061 764.731 260.674 765.125 260.182C765.519 259.682 765.72 259.098 765.727 258.432C765.72 257.826 765.542 257.326 765.193 256.932C764.845 256.53 764.356 256.197 763.727 255.932C763.106 255.659 762.379 255.417 761.545 255.205L758.898 254.523C756.981 254.03 755.466 253.284 754.352 252.284C753.246 251.277 752.693 249.939 752.693 248.273C752.693 246.902 753.064 245.701 753.807 244.67C754.557 243.64 755.576 242.841 756.864 242.273C758.152 241.697 759.61 241.409 761.239 241.409C762.89 241.409 764.337 241.697 765.58 242.273C766.83 242.841 767.811 243.633 768.523 244.648C769.235 245.655 769.602 246.814 769.625 248.125H765.568ZM793.622 249.58H789.372C789.251 248.883 789.027 248.265 788.702 247.727C788.376 247.182 787.971 246.72 787.486 246.341C787.001 245.962 786.448 245.678 785.827 245.489C785.213 245.292 784.55 245.193 783.838 245.193C782.573 245.193 781.452 245.511 780.474 246.148C779.497 246.777 778.732 247.701 778.179 248.92C777.626 250.133 777.349 251.614 777.349 253.364C777.349 255.144 777.626 256.644 778.179 257.864C778.74 259.076 779.505 259.992 780.474 260.614C781.452 261.227 782.569 261.534 783.827 261.534C784.524 261.534 785.175 261.443 785.781 261.261C786.395 261.072 786.944 260.795 787.429 260.432C787.921 260.068 788.334 259.621 788.668 259.091C789.009 258.561 789.243 257.955 789.372 257.273L793.622 257.295C793.463 258.402 793.118 259.439 792.588 260.409C792.065 261.379 791.38 262.235 790.531 262.977C789.683 263.712 788.69 264.288 787.554 264.705C786.418 265.114 785.156 265.318 783.77 265.318C781.724 265.318 779.899 264.845 778.293 263.898C776.687 262.951 775.421 261.583 774.497 259.795C773.573 258.008 773.111 255.864 773.111 253.364C773.111 250.856 773.577 248.712 774.509 246.932C775.44 245.144 776.709 243.777 778.315 242.83C779.921 241.883 781.74 241.409 783.77 241.409C785.065 241.409 786.27 241.591 787.384 241.955C788.497 242.318 789.49 242.852 790.361 243.557C791.232 244.254 791.948 245.11 792.509 246.125C793.077 247.133 793.448 248.284 793.622 249.58ZM797.483 265V241.727H806.21C807.998 241.727 809.498 242.038 810.71 242.659C811.93 243.28 812.85 244.152 813.472 245.273C814.1 246.386 814.415 247.686 814.415 249.17C814.415 250.663 814.097 251.958 813.46 253.057C812.831 254.148 811.903 254.992 810.676 255.591C809.449 256.182 807.941 256.477 806.153 256.477H799.938V252.977H805.585C806.631 252.977 807.487 252.833 808.153 252.545C808.82 252.25 809.313 251.822 809.631 251.261C809.956 250.693 810.119 249.996 810.119 249.17C810.119 248.345 809.956 247.64 809.631 247.057C809.305 246.466 808.809 246.019 808.142 245.716C807.475 245.405 806.616 245.25 805.562 245.25H801.699V265H797.483ZM809.506 254.455L815.267 265H810.562L804.903 254.455H809.506ZM822.511 241.727V265H818.295V241.727H822.511ZM827.077 265V241.727H835.804C837.592 241.727 839.092 242.061 840.304 242.727C841.524 243.394 842.444 244.311 843.065 245.477C843.694 246.636 844.009 247.955 844.009 249.432C844.009 250.924 843.694 252.25 843.065 253.409C842.437 254.568 841.509 255.481 840.281 256.148C839.054 256.807 837.543 257.136 835.747 257.136H829.963V253.67H835.179C836.224 253.67 837.08 253.489 837.747 253.125C838.414 252.761 838.906 252.261 839.224 251.625C839.55 250.989 839.713 250.258 839.713 249.432C839.713 248.606 839.55 247.879 839.224 247.25C838.906 246.621 838.41 246.133 837.736 245.784C837.069 245.428 836.209 245.25 835.156 245.25H831.293V265H827.077ZM846.648 245.261V241.727H865.216V245.261H858.023V265H853.841V245.261H846.648ZM873.011 241.727V265H868.795V241.727H873.011ZM898.372 253.364C898.372 255.871 897.902 258.019 896.963 259.807C896.031 261.587 894.759 262.951 893.145 263.898C891.539 264.845 889.717 265.318 887.679 265.318C885.641 265.318 883.815 264.845 882.202 263.898C880.596 262.943 879.323 261.576 878.384 259.795C877.452 258.008 876.986 255.864 876.986 253.364C876.986 250.856 877.452 248.712 878.384 246.932C879.323 245.144 880.596 243.777 882.202 242.83C883.815 241.883 885.641 241.409 887.679 241.409C889.717 241.409 891.539 241.883 893.145 242.83C894.759 243.777 896.031 245.144 896.963 246.932C897.902 248.712 898.372 250.856 898.372 253.364ZM894.134 253.364C894.134 251.598 893.857 250.11 893.304 248.898C892.759 247.678 892.001 246.758 891.031 246.136C890.062 245.508 888.944 245.193 887.679 245.193C886.414 245.193 885.296 245.508 884.327 246.136C883.357 246.758 882.596 247.678 882.043 248.898C881.497 250.11 881.224 251.598 881.224 253.364C881.224 255.129 881.497 256.621 882.043 257.841C882.596 259.053 883.357 259.973 884.327 260.602C885.296 261.223 886.414 261.534 887.679 261.534C888.944 261.534 890.062 261.223 891.031 260.602C892.001 259.973 892.759 259.053 893.304 257.841C893.857 256.621 894.134 255.129 894.134 253.364ZM921.483 241.727V265H917.733L906.767 249.148H906.574V265H902.358V241.727H906.131L917.085 257.591H917.29V241.727H921.483Z" fill="black"/>
<rect x="792.5" y="599.5" width="152" height="58" rx="7.5" fill="white"/>
<rect x="792.5" y="599.5" width="152" height="58" rx="7.5" stroke="black"/>
<path d="M804.295 640V616.727H813.205C814.886 616.727 816.284 616.992 817.398 617.523C818.519 618.045 819.356 618.761 819.909 619.67C820.47 620.58 820.75 621.61 820.75 622.761C820.75 623.708 820.568 624.519 820.205 625.193C819.841 625.86 819.352 626.402 818.739 626.818C818.125 627.235 817.439 627.534 816.682 627.716V627.943C817.508 627.989 818.299 628.242 819.057 628.705C819.822 629.159 820.447 629.803 820.932 630.636C821.417 631.47 821.659 632.477 821.659 633.659C821.659 634.864 821.367 635.947 820.784 636.909C820.201 637.864 819.322 638.617 818.148 639.17C816.973 639.723 815.496 640 813.716 640H804.295ZM808.511 636.477H813.045C814.576 636.477 815.678 636.186 816.352 635.602C817.034 635.011 817.375 634.254 817.375 633.33C817.375 632.64 817.205 632.019 816.864 631.466C816.523 630.905 816.038 630.466 815.409 630.148C814.78 629.822 814.03 629.659 813.159 629.659H808.511V636.477ZM808.511 626.625H812.682C813.409 626.625 814.064 626.492 814.648 626.227C815.231 625.955 815.689 625.572 816.023 625.08C816.364 624.58 816.534 623.989 816.534 623.307C816.534 622.405 816.216 621.663 815.58 621.08C814.951 620.496 814.015 620.205 812.773 620.205H808.511V626.625ZM839.997 616.727H844.213V631.932C844.213 633.598 843.819 635.064 843.031 636.33C842.251 637.595 841.152 638.583 839.736 639.295C838.319 640 836.664 640.352 834.77 640.352C832.868 640.352 831.209 640 829.793 639.295C828.376 638.583 827.277 637.595 826.497 636.33C825.717 635.064 825.327 633.598 825.327 631.932V616.727H829.543V631.58C829.543 632.549 829.755 633.413 830.179 634.17C830.611 634.928 831.217 635.523 831.997 635.955C832.777 636.379 833.702 636.591 834.77 636.591C835.838 636.591 836.762 636.379 837.543 635.955C838.33 635.523 838.937 634.928 839.361 634.17C839.785 633.413 839.997 632.549 839.997 631.58V616.727ZM856.682 640H848.795V616.727H856.841C859.152 616.727 861.136 617.193 862.795 618.125C864.462 619.049 865.742 620.379 866.636 622.114C867.53 623.848 867.977 625.924 867.977 628.341C867.977 630.765 867.527 632.848 866.625 634.591C865.731 636.333 864.439 637.67 862.75 638.602C861.068 639.534 859.045 640 856.682 640ZM853.011 636.352H856.477C858.098 636.352 859.451 636.057 860.534 635.466C861.617 634.867 862.432 633.977 862.977 632.795C863.523 631.606 863.795 630.121 863.795 628.341C863.795 626.561 863.523 625.083 862.977 623.909C862.432 622.727 861.625 621.845 860.557 621.261C859.496 620.67 858.178 620.375 856.602 620.375H853.011V636.352ZM887.574 624.159C887.384 623.545 887.123 622.996 886.79 622.511C886.464 622.019 886.07 621.598 885.608 621.25C885.153 620.902 884.631 620.64 884.04 620.466C883.449 620.284 882.805 620.193 882.108 620.193C880.858 620.193 879.744 620.508 878.767 621.136C877.79 621.765 877.021 622.689 876.46 623.909C875.907 625.121 875.631 626.598 875.631 628.341C875.631 630.098 875.907 631.587 876.46 632.807C877.013 634.027 877.782 634.955 878.767 635.591C879.752 636.22 880.896 636.534 882.199 636.534C883.381 636.534 884.403 636.307 885.267 635.852C886.138 635.398 886.809 634.754 887.278 633.92C887.748 633.08 887.983 632.095 887.983 630.966L888.938 631.114H882.619V627.818H892.062V630.614C892.062 632.606 891.638 634.33 890.79 635.784C889.941 637.239 888.775 638.36 887.29 639.148C885.805 639.928 884.1 640.318 882.176 640.318C880.032 640.318 878.15 639.837 876.528 638.875C874.915 637.905 873.653 636.53 872.744 634.75C871.843 632.962 871.392 630.841 871.392 628.386C871.392 626.508 871.657 624.83 872.188 623.352C872.725 621.875 873.475 620.621 874.438 619.591C875.4 618.553 876.528 617.765 877.824 617.227C879.119 616.682 880.528 616.409 882.051 616.409C883.339 616.409 884.54 616.598 885.653 616.977C886.767 617.348 887.756 617.879 888.619 618.568C889.491 619.258 890.206 620.076 890.767 621.023C891.328 621.97 891.695 623.015 891.869 624.159H887.574ZM896.139 640V616.727H911.276V620.261H900.355V626.58H910.491V630.114H900.355V636.466H911.366V640H896.139ZM914.554 620.261V616.727H933.122V620.261H925.929V640H921.747V620.261H914.554Z" fill="black"/>
<g clip-path="url(#clip0_5_2)">
<path fill-rule="evenodd" clip-rule="evenodd" d="M411.871 311H460.129C471.058 311 480 319.983 480 330.963V379.037C480 390.017 471.058 399 460.129 399H411.871C400.942 399 392 390.017 392 379.037V330.963C392 319.983 400.942 311 411.871 311Z" fill="white"/>
<path d="M462.819 349.292C463.348 347.696 463.617 346.024 463.618 344.342C463.618 341.558 462.879 338.824 461.479 336.421C458.665 331.501 453.446 328.463 447.797 328.463C446.686 328.463 445.572 328.581 444.486 328.815C443.022 327.159 441.226 325.833 439.215 324.924C437.204 324.016 435.024 323.546 432.819 323.546H432.72C432.71 323.547 432.694 323.547 432.683 323.547C425.841 323.547 419.774 327.982 417.67 334.521C413.266 335.425 409.464 338.2 407.24 342.123C405.845 344.54 405.109 347.285 405.108 350.08C405.109 354.007 406.56 357.794 409.18 360.708C408.651 362.304 408.382 363.976 408.381 365.658C408.382 368.443 409.12 371.176 410.52 373.579C413.333 378.501 418.553 381.537 424.203 381.537C425.315 381.537 426.424 381.419 427.512 381.185C428.976 382.841 430.773 384.167 432.784 385.076C434.795 385.984 436.975 386.454 439.18 386.454H439.279L439.319 386.454C446.165 386.454 452.23 382.018 454.334 375.474C458.738 374.569 462.54 371.794 464.763 367.871C466.158 365.456 466.892 362.713 466.892 359.922C466.891 355.994 465.44 352.207 462.82 349.293L462.819 349.292ZM439.283 382.341H439.267C436.528 382.34 433.875 381.375 431.771 379.613C431.896 379.545 432.02 379.475 432.142 379.402L444.61 372.167C444.921 371.989 445.179 371.732 445.359 371.421C445.539 371.11 445.634 370.757 445.634 370.397V352.726L450.904 355.783C450.96 355.811 450.999 355.866 451.007 355.928V370.552C450.999 377.054 445.755 382.328 439.283 382.341ZM414.071 371.523C413.041 369.734 412.499 367.705 412.498 365.638C412.498 364.964 412.557 364.288 412.671 363.624C412.763 363.68 412.925 363.779 413.041 363.846L425.509 371.081C425.82 371.263 426.173 371.359 426.533 371.359C426.893 371.359 427.246 371.263 427.557 371.081L442.779 362.251V368.365C442.781 368.396 442.775 368.427 442.762 368.455C442.749 368.484 442.729 368.508 442.704 368.527L430.1 375.838C428.317 376.869 426.295 377.412 424.238 377.413C422.178 377.412 420.154 376.868 418.37 375.834C416.586 374.8 415.103 373.314 414.071 371.523L414.071 371.523ZM410.791 344.179C412.16 341.79 414.323 339.96 416.899 339.01C416.899 339.118 416.893 339.309 416.893 339.442V353.912L416.893 353.924C416.893 354.284 416.988 354.636 417.167 354.947C417.347 355.258 417.605 355.515 417.916 355.693L433.138 364.521L427.868 367.578C427.842 367.596 427.812 367.606 427.781 367.609C427.75 367.612 427.719 367.607 427.691 367.594L415.086 360.278C413.304 359.241 411.824 357.751 410.796 355.959C409.767 354.167 409.226 352.134 409.226 350.065C409.226 348 409.766 345.97 410.792 344.18L410.791 344.179ZM454.088 354.301L438.866 345.471L444.136 342.416C444.162 342.398 444.192 342.388 444.223 342.385C444.254 342.382 444.285 342.387 444.313 342.399L456.918 349.71C460.546 351.816 462.785 355.71 462.785 359.921C462.785 364.86 459.717 369.279 455.104 370.985V356.082C455.105 356.077 455.105 356.071 455.105 356.066C455.105 355.337 454.716 354.664 454.088 354.301ZM459.333 346.371C459.24 346.313 459.079 346.216 458.962 346.149L446.495 338.913C446.184 338.731 445.83 338.635 445.471 338.635C445.111 338.635 444.757 338.732 444.447 338.913L429.225 347.743V341.629L429.225 341.619C429.225 341.589 429.232 341.56 429.245 341.534C429.258 341.508 429.277 341.485 429.3 341.467L441.904 334.162C443.687 333.13 445.708 332.586 447.766 332.586C454.247 332.586 459.502 337.866 459.502 344.376C459.502 345.044 459.445 345.711 459.333 346.37V346.371ZM426.36 357.268L421.089 354.211C421.061 354.197 421.037 354.176 421.019 354.151C421.002 354.126 420.99 354.096 420.986 354.066V339.442C420.989 332.935 426.245 327.659 432.722 327.659C435.466 327.66 438.122 328.626 440.231 330.388C440.106 330.456 439.983 330.527 439.861 330.599L427.393 337.834C427.082 338.012 426.823 338.269 426.643 338.58C426.463 338.891 426.369 339.244 426.368 339.604V339.616L426.36 357.268ZM429.222 351.067L436.002 347.133L442.781 351.064V358.93L436.002 362.861L429.222 358.93V351.067Z" fill="black"/>
</g>
<rect x="392.5" y="311.5" width="87" height="87" rx="11.5" stroke="black"/>
<g clip-path="url(#clip1_5_2)">
<path d="M903 402.092C891.064 402.824 879.808 407.896 871.352 416.352C862.896 424.808 857.824 436.064 857.092 448H856.908C856.177 436.064 851.105 424.807 842.649 416.351C834.193 407.895 822.936 402.823 811 402.092V401.908C822.936 401.177 834.193 396.105 842.649 387.649C851.105 379.193 856.177 367.936 856.908 356H857.092C857.824 367.936 862.896 379.192 871.352 387.648C879.808 396.104 891.064 401.176 903 401.908V402.092Z" fill="url(#paint0_radial_5_2)"/>
</g>
<g clip-path="url(#clip2_5_2)">
<path fill-rule="evenodd" clip-rule="evenodd" d="M302.129 661H355.871C368.042 661 378 671.004 378 683.231V736.769C378 748.996 368.042 759 355.871 759H302.129C289.958 759 280 748.996 280 736.769V683.231C280 671.004 289.958 661 302.129 661Z" fill="black"/>
<path fill-rule="evenodd" clip-rule="evenodd" d="M320.814 719.845L355.072 685.232V685.265L364.966 675.311C364.789 675.565 364.61 675.812 364.433 676.059C356.915 686.474 353.244 691.567 356.189 704.311L356.172 704.292C358.203 712.966 356.03 722.586 349.014 729.643C340.168 738.547 326.013 740.528 314.357 732.513L322.485 728.73C329.923 731.668 338.064 730.378 343.912 724.494C349.763 718.609 351.077 710.041 348.136 702.908C347.577 701.558 345.902 701.217 344.73 702.089L320.814 719.845ZM315.879 724.16L315.873 724.166L293.034 744.689C294.482 742.684 296.279 740.787 298.073 738.891C303.131 733.545 308.151 728.246 305.089 720.758C300.988 710.737 303.375 698.995 310.969 691.357C318.863 683.424 330.489 681.423 340.198 685.442C342.348 686.245 344.221 687.387 345.68 688.45L337.572 692.215C330.023 689.031 321.373 691.196 316.095 696.506C308.956 703.68 307.512 716.12 315.879 724.16Z" fill="white"/>
</g>
<g clip-path="url(#clip3_5_2)">
<path d="M687.43 724H773.45C783.63 724 791.88 732.25 791.88 742.43V828.45C791.88 838.63 783.63 846.88 773.45 846.88H687.43C677.25 846.88 669 838.63 669 828.45V742.43C669 732.25 677.25 724 687.43 724Z" fill="#008D50"/>
<path d="M754.73 795.26C750.65 795.26 746.81 793.53 743.35 790.72L744.19 786.74L744.21 786.6C744.98 782.38 747.35 775.27 754.72 775.27C760.24 775.27 764.73 779.76 764.73 785.28C764.74 790.79 760.25 795.26 754.73 795.26ZM754.73 765.14C745.32 765.14 738.05 771.24 735.07 781.29C730.56 774.5 727.13 766.36 725.13 759.5H715.01V785.83C715.01 791.04 710.79 795.26 705.58 795.26C700.37 795.26 696.15 791.04 696.15 785.83V759.47H686.05V785.8C686.05 796.58 694.81 805.43 705.59 805.43C716.37 805.43 725.13 796.57 725.13 785.8V781.38C727.1 785.48 729.5 789.64 732.43 793.28L726.24 822.42H736.58L741.07 801.3C745.01 803.82 749.52 805.4 754.7 805.4C765.79 805.4 774.81 796.33 774.81 785.22C774.82 774.16 765.82 765.14 754.73 765.14Z" fill="white"/>
</g>
<rect x="669.5" y="724.5" width="121.88" height="121.88" rx="15.5" stroke="black"/>
<path d="M551 273.555H538.796L535.013 261.724L531.229 273.555H519.025L528.884 280.856L525.154 292.633L535.013 285.332L544.872 292.633L541.088 280.803L551 273.555Z" fill="#FFCE31"/>
<path d="M476.035 862.694H461.127L456.505 848.242L451.883 862.694H436.975L449.018 871.613L444.461 886L456.505 877.081L468.548 886L463.926 871.548L476.035 862.694Z" fill="#FFCE31"/>
<path d="M193.966 585.817H171.46L164.483 564L157.505 585.817H135L153.181 599.281L146.302 621L164.483 607.536L182.664 621L175.686 599.183L193.966 585.817Z" fill="#FFCE31"/>
<g clip-path="url(#clip4_5_2)">
<path d="M645.359 780.828C632.636 778.899 610.477 768.446 623.624 742.067C636.771 715.688 611.458 681.986 597.156 668.431M597.156 668.431L598.85 679.682M597.156 668.431L608.095 671.482" stroke="#424242" stroke-width="5" stroke-linecap="round"/>
</g>
<path d="M820.297 437.091C799.657 470.162 750.051 527.017 710.863 497.325C684.108 477.054 712.99 449.653 741.402 472.966C769.815 496.278 748.491 555.472 679.334 535.75M679.334 535.75L690.877 526.907M679.334 535.75L691.522 550.816" stroke="#424242" stroke-width="5" stroke-linecap="round"/>
<path d="M680.528 286.128C643.046 298.698 578.321 340.615 619.274 407.729M619.274 407.729L607.204 403.746M619.274 407.729L625.178 393.631" stroke="#424242" stroke-width="5" stroke-linecap="round"/>
<path d="M263.097 340.095C247.749 385.515 323.868 378.185 319.917 429.719C313.283 516.266 274.202 626.799 381.95 569.059M381.95 569.059L354.568 564.697M381.95 569.059L371.016 592.213" stroke="#424242" stroke-width="5" stroke-linecap="round"/>
<path d="M760.482 642.955C746.428 652.9 713.821 663.725 695.819 627.459M695.819 627.459L714.219 630.048M695.819 627.459L692.391 643.696" stroke="#424242" stroke-width="5" stroke-linecap="round"/>
<defs>
<radialGradient id="paint0_radial_5_2" cx="0" cy="0" r="1" gradientUnits="userSpaceOnUse" gradientTransform="translate(820.131 393.392) rotate(18.6832) scale(97.9225 784.421)">
<stop offset="0.067" stop-color="#9168C0"/>
<stop offset="0.343" stop-color="#5684D1"/>
<stop offset="0.672" stop-color="#1BA1E3"/>
</radialGradient>
<clipPath id="clip0_5_2">
<rect x="392" y="311" width="88" height="88" rx="12" fill="white"/>
</clipPath>
<clipPath id="clip1_5_2">
<rect width="92" height="92" fill="white" transform="translate(811 356)"/>
</clipPath>
<clipPath id="clip2_5_2">
<rect width="98" height="98" fill="white" transform="translate(280 661)"/>
</clipPath>
<clipPath id="clip3_5_2">
<rect x="669" y="724" width="122.88" height="122.88" rx="16" fill="white"/>
</clipPath>
<clipPath id="clip4_5_2">
<rect width="129.807" height="129.807" fill="white" transform="translate(535 755.424) rotate(-64.7705)"/>
</clipPath>
</defs>
</svg>
