<svg width="1080" height="1080" viewBox="0 0 1080 1080" fill="none" xmlns="http://www.w3.org/2000/svg">
  <path d="M628.186 462H491.821c-6.528 0-11.821 5.133-11.821 11.462v137.069c0 6.336 5.293 11.469 11.821 11.469h136.365c6.528 0 11.814-5.139 11.814-11.469V473.462c0-6.329-5.286-11.462-11.814-11.462" fill="#06C54F"/>
  <path d="M553.333 488.667 550 482l-3.333 6.667-6.667.833 5.56 4.72-2.227 7.78 6.667-4.44 6.667 4.44-2.227-7.78 5.56-4.72zm55.56 71.106-5.56-11.106-5.56 11.106-11.106 1.394 9.26 7.873-3.7 12.96 11.106-7.407L614.44 582l-3.7-12.96 9.26-7.873zm-84.446-55.553L520 495.333l-4.447 8.887-8.886 1.113 7.406 6.294-2.96 10.373 8.887-5.927 8.887 5.927-2.96-10.373 7.406-6.294zm-21.687 71.113c0 3.56 1.387 6.907 3.907 9.427l10.573 10.573a13.24 13.24 0 0 0 9.427 3.907c3.56 0 6.906-1.387 9.426-3.907l77.24-77.24a13.24 13.24 0 0 0 3.907-9.426c0-3.56-1.387-6.907-3.907-9.427l-10.573-10.573c-5.04-5.04-13.813-5.04-18.853 0l-77.24 77.24a13.24 13.24 0 0 0-3.907 9.426m90.573-77.24 10.574 10.574L580 532.573 569.427 522z" fill="#fff"/>
  <rect x="184.5" y="265.5" width="108" height="58" rx="7.5" fill="#fff"/>
  <rect x="184.5" y="265.5" width="108" height="58" rx="7.5" stroke="#000"/>
  <path d="M195.273 286.261v-3.534h18.568v3.534h-7.193V306h-4.182v-19.739zm26.363-3.534V306h-4.216v-23.273zm3.543 3.534v-3.534h18.568v3.534h-7.193V306h-4.182v-19.739zM247.327 306v-23.273h4.216v19.739h10.25V306zm18.125 0v-23.273h15.136v3.534h-10.92v6.319h10.136v3.534h-10.136v6.352h11.011V306z" fill="#000"/>
  <rect x="698.5" y="224.5" width="235" height="58" rx="7.5" fill="#fff"/>
  <rect x="698.5" y="224.5" width="235" height="58" rx="7.5" stroke="#000"/>
  <path d="M718.182 265h-7.887v-23.273h8.046q3.466 0 5.954 1.398 2.5 1.386 3.841 3.989 1.341 2.601 1.341 6.227 0 3.636-1.352 6.25-1.341 2.613-3.875 4.011-2.523 1.398-6.068 1.398m-3.671-3.648h3.466q2.432 0 4.057-.886 1.625-.898 2.443-2.671.818-1.784.818-4.454t-.818-4.432q-.818-1.772-2.42-2.648-1.591-.886-3.955-.886h-3.591zM733.483 265v-23.273h15.136v3.534h-10.92v6.319h10.136v3.534h-10.136v6.352h11.011V265zm32.085-16.875q-.159-1.488-1.341-2.318-1.17-.83-3.045-.83-1.319 0-2.262.398-.942.397-1.443 1.08a2.62 2.62 0 0 0-.511 1.556q0 .728.329 1.262.342.534.921.909.579.363 1.284.613t1.42.421l2.182.545q1.319.307 2.534.83 1.228.523 2.194 1.318a5.9 5.9 0 0 1 1.545 1.921q.568 1.125.568 2.636 0 2.046-1.045 3.602-1.046 1.545-3.023 2.421-1.966.863-4.761.863-2.716 0-4.716-.841-1.989-.84-3.114-2.454-1.113-1.614-1.204-3.932h4.147q.092 1.216.75 2.023.66.807 1.716 1.204 1.068.398 2.387.398 1.374 0 2.409-.409 1.045-.42 1.636-1.159.591-.75.602-1.75-.01-.909-.534-1.5-.522-.603-1.466-1a14 14 0 0 0-2.182-.727l-2.647-.682q-2.875-.74-4.546-2.239-1.659-1.511-1.659-4.011 0-2.057 1.114-3.603 1.125-1.545 3.057-2.397 1.932-.864 4.375-.864 2.476 0 4.341.864 1.875.852 2.943 2.375 1.068 1.51 1.102 3.477zm28.054 1.455h-4.25a5.3 5.3 0 0 0-.67-1.853 5 5 0 0 0-1.216-1.386 5.1 5.1 0 0 0-1.659-.852 6.5 6.5 0 0 0-1.989-.296q-1.897 0-3.364.955-1.466.943-2.295 2.772-.83 1.82-.83 4.444 0 2.67.83 4.5.842 1.817 2.295 2.75 1.466.92 3.353.92a6.8 6.8 0 0 0 1.954-.273 5.4 5.4 0 0 0 1.648-.829 5.06 5.06 0 0 0 1.943-3.159l4.25.022a9.2 9.2 0 0 1-1.034 3.114 9.2 9.2 0 0 1-2.057 2.568q-1.273 1.102-2.977 1.728-1.705.613-3.784.613-3.069 0-5.477-1.42-2.41-1.42-3.796-4.103-1.386-2.68-1.386-6.431 0-3.762 1.398-6.432 1.397-2.682 3.806-4.102 2.41-1.42 5.455-1.421 1.943 0 3.614.546a9.2 9.2 0 0 1 2.977 1.602 8.5 8.5 0 0 1 2.148 2.568q.852 1.511 1.113 3.455m3.861 15.42v-23.273h8.727q2.682 0 4.5.932 1.83.932 2.762 2.614.943 1.67.943 3.897 0 2.239-.955 3.887-.944 1.636-2.784 2.534-1.84.886-4.523.886h-6.215v-3.5h5.647q1.569 0 2.568-.432 1-.442 1.478-1.284.488-.852.488-2.091 0-1.238-.488-2.113-.489-.887-1.489-1.341-1-.466-2.58-.466h-3.863V265zm12.023-10.545L815.267 265h-4.705l-5.659-10.545zm13.005-12.728V265h-4.216v-23.273zM827.077 265v-23.273h8.727q2.682 0 4.5 1 1.83 1 2.761 2.75.944 1.739.944 3.955 0 2.238-.944 3.977-.942 1.738-2.784 2.739-1.84.988-4.534.988h-5.784v-3.466h5.216q1.567 0 2.568-.545 1-.546 1.477-1.5.489-.954.489-2.193t-.489-2.182q-.477-.943-1.488-1.466-1-.534-2.58-.534h-3.863V265zm19.571-19.739v-3.534h18.568v3.534h-7.193V265h-4.182v-19.739zm26.363-3.534V265h-4.216v-23.273zm25.361 11.637q0 3.76-1.409 6.443-1.398 2.67-3.818 4.091-2.409 1.42-5.466 1.42t-5.477-1.42q-2.41-1.432-3.818-4.103-1.398-2.68-1.398-6.431 0-3.762 1.398-6.432 1.409-2.682 3.818-4.102 2.42-1.42 5.477-1.421 3.057 0 5.466 1.421 2.42 1.42 3.818 4.102 1.409 2.67 1.409 6.432m-4.238 0q0-2.648-.83-4.466-.818-1.83-2.273-2.762-1.454-.942-3.352-.943-1.898 0-3.352.943-1.455.933-2.284 2.762-.819 1.817-.819 4.466 0 2.647.819 4.477.83 1.818 2.284 2.761 1.454.932 3.352.932t3.352-.932q1.455-.943 2.273-2.761.83-1.83.83-4.477m27.349-11.637V265h-3.75l-10.966-15.852h-.193V265h-4.216v-23.273h3.773l10.954 15.864h.205v-15.864z" fill="#000"/>
  <rect x="792.5" y="599.5" width="152" height="58" rx="7.5" fill="#fff"/>
  <rect x="792.5" y="599.5" width="152" height="58" rx="7.5" stroke="#000"/>
  <path d="M804.295 640v-23.273h8.91q2.522 0 4.193.796 1.681.783 2.511 2.147.841 1.365.841 3.091 0 1.42-.545 2.432a4.6 4.6 0 0 1-1.466 1.625 6.2 6.2 0 0 1-2.057.898v.227q1.239.068 2.375.762 1.147.681 1.875 1.931.727 1.25.727 3.023 0 1.807-.875 3.25-.875 1.432-2.636 2.261t-4.432.83zm4.216-3.523h4.534q2.296 0 3.307-.875 1.023-.886 1.023-2.272 0-1.035-.511-1.864-.512-.841-1.455-1.318-.943-.489-2.25-.489h-4.648zm0-9.852h4.171q1.09 0 1.966-.398a3.3 3.3 0 0 0 1.375-1.147q.511-.75.511-1.773 0-1.353-.954-2.227-.944-.875-2.807-.875h-4.262zm31.486-9.898h4.216v15.205q0 2.499-1.182 4.398-1.17 1.897-3.295 2.965-2.125 1.057-4.966 1.057-2.853 0-4.977-1.057-2.126-1.068-3.296-2.965-1.17-1.899-1.17-4.398v-15.205h4.216v14.853q0 1.454.636 2.59a4.63 4.63 0 0 0 1.818 1.785q1.17.636 2.773.636 1.602 0 2.773-.636a4.54 4.54 0 0 0 1.818-1.785q.636-1.136.636-2.59zM856.682 640h-7.887v-23.273h8.046q3.466 0 5.954 1.398 2.5 1.386 3.841 3.989 1.341 2.601 1.341 6.227 0 3.636-1.352 6.25-1.341 2.613-3.875 4.011-2.523 1.398-6.068 1.398m-3.671-3.648h3.466q2.432 0 4.057-.886 1.625-.898 2.443-2.671.818-1.784.818-4.454t-.818-4.432q-.818-1.772-2.42-2.648-1.591-.886-3.955-.886h-3.591zm34.563-12.193a6 6 0 0 0-.784-1.648 5.1 5.1 0 0 0-1.182-1.261 4.8 4.8 0 0 0-1.568-.784 6.5 6.5 0 0 0-1.932-.273q-1.875 0-3.341.943t-2.307 2.773q-.83 1.818-.829 4.432 0 2.636.829 4.466.83 1.83 2.307 2.784 1.477.943 3.432.943 1.773 0 3.068-.682a4.8 4.8 0 0 0 2.011-1.932q.705-1.26.705-2.954l.955.148h-6.319v-3.296h9.443v2.796q0 2.988-1.272 5.17a8.7 8.7 0 0 1-3.5 3.364q-2.228 1.17-5.114 1.17-3.215 0-5.648-1.443-2.42-1.455-3.784-4.125-1.352-2.682-1.352-6.364 0-2.817.796-5.034.806-2.216 2.25-3.761a9.6 9.6 0 0 1 3.386-2.364q1.942-.818 4.227-.818 1.932 0 3.602.568a9.5 9.5 0 0 1 2.966 1.591 8.9 8.9 0 0 1 2.148 2.455 8.6 8.6 0 0 1 1.102 3.136zM896.139 640v-23.273h15.137v3.534h-10.921v6.319h10.136v3.534h-10.136v6.352h11.011V640zm18.415-19.739v-3.534h18.568v3.534h-7.193V640h-4.182v-19.739z" fill="#000"/>
  <g clip-path="url(#a)">
    <path fill-rule="evenodd" clip-rule="evenodd" d="M411.871 311h48.258c10.929 0 19.871 8.983 19.871 19.963v48.074c0 10.98-8.942 19.963-19.871 19.963h-48.258C400.942 399 392 390.017 392 379.037v-48.074c0-10.98 8.942-19.963 19.871-19.963" fill="#fff"/>
    <path d="M462.819 349.292a15.74 15.74 0 0 0-1.34-12.871 15.77 15.77 0 0 0-13.682-7.958c-1.111 0-2.225.118-3.311.352a15.6 15.6 0 0 0-5.271-3.891 15.5 15.5 0 0 0-6.396-1.378h-.099l-.037.001c-6.842 0-12.909 4.435-15.013 10.974a15.6 15.6 0 0 0-10.43 7.602 15.9 15.9 0 0 0 1.94 18.585 15.75 15.75 0 0 0 1.34 12.871 15.77 15.77 0 0 0 13.683 7.958c1.112 0 2.221-.118 3.309-.352a15.6 15.6 0 0 0 5.272 3.891 15.5 15.5 0 0 0 6.396 1.378h.139c6.846 0 12.911-4.436 15.015-10.98a15.6 15.6 0 0 0 10.429-7.603 15.9 15.9 0 0 0-1.943-18.578zm-23.536 33.049h-.016a11.68 11.68 0 0 1-7.496-2.728q.188-.102.371-.211l12.468-7.235a2.04 2.04 0 0 0 1.024-1.77v-17.671l5.27 3.057a.19.19 0 0 1 .103.145v14.624c-.008 6.502-5.252 11.776-11.724 11.789m-25.212-10.818a11.8 11.8 0 0 1-1.4-7.899c.092.056.254.155.37.222l12.468 7.235a2.03 2.03 0 0 0 2.048 0l15.222-8.83v6.114a.19.19 0 0 1-.075.162l-12.604 7.311a11.7 11.7 0 0 1-5.862 1.575 11.7 11.7 0 0 1-5.868-1.579 11.8 11.8 0 0 1-4.299-4.311m-3.28-27.344a11.7 11.7 0 0 1 6.108-5.169c0 .108-.006.299-.006.432v14.482a2.03 2.03 0 0 0 1.023 1.769l15.222 8.828-5.27 3.057a.18.18 0 0 1-.177.016l-12.605-7.316a11.8 11.8 0 0 1-4.29-4.319 11.84 11.84 0 0 1-.004-11.779zm43.297 10.122-15.222-8.83 5.27-3.055a.18.18 0 0 1 .177-.017l12.605 7.311c3.628 2.106 5.867 6 5.867 10.211 0 4.939-3.068 9.358-7.681 11.064v-14.903l.001-.016a2.04 2.04 0 0 0-1.017-1.765m5.245-7.93a14 14 0 0 0-.371-.222l-12.467-7.236a2.03 2.03 0 0 0-2.048 0l-15.222 8.83v-6.124a.19.19 0 0 1 .075-.152l12.604-7.305a11.7 11.7 0 0 1 5.862-1.576c6.481 0 11.736 5.28 11.736 11.79q0 1.004-.169 1.994zm-32.973 10.897-5.271-3.057a.2.2 0 0 1-.07-.06.2.2 0 0 1-.033-.085v-14.624c.003-6.507 5.259-11.783 11.736-11.783 2.744.001 5.4.967 7.509 2.729q-.187.103-.37.211l-12.468 7.235a2.03 2.03 0 0 0-1.025 1.77v.012zm2.862-6.201 6.78-3.934 6.779 3.931v7.866l-6.779 3.931-6.78-3.931z" fill="#000"/>
  </g>
  <rect x="392.5" y="311.5" width="87" height="87" rx="11.5" stroke="#000"/>
  <g clip-path="url(#b)">
    <path d="M903 402.092A49 49 0 0 0 857.092 448h-.184A48.995 48.995 0 0 0 811 402.092v-.184A48.995 48.995 0 0 0 856.908 356h.184A49 49 0 0 0 903 401.908z" fill="url(#c)"/>
  </g>
  <g clip-path="url(#d)" fill-rule="evenodd" clip-rule="evenodd">
    <path d="M302.129 661h53.742C368.042 661 378 671.004 378 683.231v53.538c0 12.227-9.958 22.231-22.129 22.231h-53.742C289.958 759 280 748.996 280 736.769v-53.538c0-12.227 9.958-22.231 22.129-22.231" fill="#000"/>
    <path d="m320.814 719.845 34.258-34.613v.033l9.894-9.954q-.267.38-.533.748c-7.518 10.415-11.189 15.508-8.244 28.252l-.017-.019c2.031 8.674-.142 18.294-7.158 25.351-8.846 8.904-23.001 10.885-34.657 2.87l8.128-3.783c7.438 2.938 15.579 1.648 21.427-4.236 5.851-5.885 7.165-14.453 4.224-21.586-.559-1.35-2.234-1.691-3.406-.819zm-4.935 4.315-.006.006-22.839 20.523c1.448-2.005 3.245-3.902 5.039-5.798 5.058-5.346 10.078-10.645 7.016-18.133-4.101-10.021-1.714-21.763 5.88-29.401 7.894-7.933 19.52-9.934 29.229-5.915 2.15.803 4.023 1.945 5.482 3.008l-8.108 3.765c-7.549-3.184-16.199-1.019-21.477 4.291-7.139 7.174-8.583 19.614-.216 27.654" fill="#fff"/>
  </g>
  <g clip-path="url(#e)">
    <path d="M687.43 724h86.02c10.18 0 18.43 8.25 18.43 18.43v86.02c0 10.18-8.25 18.43-18.43 18.43h-86.02c-10.18 0-18.43-8.25-18.43-18.43v-86.02c0-10.18 8.25-18.43 18.43-18.43" fill="#000"/>
    <path d="M754.73 795.26c-4.08 0-7.92-1.73-11.38-4.54l.84-3.98.02-.14c.77-4.22 3.14-11.33 10.51-11.33 5.52 0 10.01 4.49 10.01 10.01.01 5.51-4.48 9.98-10 9.98m0-30.12c-9.41 0-16.68 6.1-19.66 16.15-4.51-6.79-7.94-14.93-9.94-21.79h-10.12v26.33c0 5.21-4.22 9.43-9.43 9.43s-9.43-4.22-9.43-9.43v-26.36h-10.1v26.33c0 10.78 8.76 19.63 19.54 19.63s19.54-8.86 19.54-19.63v-4.42c1.97 4.1 4.37 8.26 7.3 11.9l-6.19 29.14h10.34l4.49-21.12c3.94 2.52 8.45 4.1 13.63 4.1 11.09 0 20.11-9.07 20.11-20.18.01-11.06-8.99-20.08-20.08-20.08" fill="#fff"/>
  </g>
  <rect x="669.5" y="724.5" width="121.88" height="121.88" rx="15.5" stroke="#000"/>
  <path d="M551 273.555h-12.204l-3.783-11.831-3.784 11.831h-12.204l9.859 7.301-3.73 11.777 9.859-7.301 9.859 7.301-3.784-11.83zm-74.965 589.139h-14.908l-4.622-14.452-4.622 14.452h-14.908l12.043 8.919L444.461 886l12.044-8.919L468.548 886l-4.622-14.452zM193.966 585.817H171.46L164.483 564l-6.978 21.817H135l18.181 13.464L146.302 621l18.181-13.464L182.664 621l-6.978-21.817z" fill="#FFCE31"/>
  <g clip-path="url(#f)">
    <path d="M645.359 780.828c-12.723-1.929-34.882-12.382-21.735-38.761s-12.166-60.081-26.468-73.636m0 0 1.694 11.251m-1.694-11.251 10.939 3.051" stroke="#424242" stroke-width="5" stroke-linecap="round"/>
  </g>
  <path d="M820.297 437.091c-20.64 33.071-70.246 89.926-109.434 60.234-26.755-20.271 2.127-47.672 30.539-24.359s7.089 82.506-62.068 62.784m0 0 11.543-8.843m-11.543 8.843 12.188 15.066m-10.994-264.688c-37.482 12.57-102.207 54.487-61.254 121.601m0 0-12.07-3.983m12.07 3.983 5.904-14.098m-362.081-53.536c-15.348 45.42 60.771 38.09 56.82 89.624-6.634 86.547-45.715 197.08 62.033 139.34m0 0-27.382-4.362m27.382 4.362-10.934 23.154m389.466 50.742c-14.054 9.945-46.661 20.77-64.663-15.496m0 0 18.4 2.589m-18.4-2.589-3.428 16.237M424.6 421.841c-5.391 16.351-6.185 50.699 33.764 57.283m0 0-7.867-16.833m7.867 16.833-14.52 8.036M396.8 706.089c37.351 12.953 114.2 19.321 122.792-58.831m0 0 7.121 10.529m-7.121-10.529-13.289 7.553" stroke="#424242" stroke-width="5" stroke-linecap="round"/>
  <defs>
    <clipPath id="a">
      <rect x="392" y="311" width="88" height="88" rx="12" fill="#fff"/>
    </clipPath>
    <clipPath id="b">
      <path fill="#fff" d="M811 356h92v92h-92z"/>
    </clipPath>
    <clipPath id="d">
      <path fill="#fff" d="M280 661h98v98h-98z"/>
    </clipPath>
    <clipPath id="e">
      <rect x="669" y="724" width="122.88" height="122.88" rx="16" fill="#fff"/>
    </clipPath>
    <clipPath id="f">
      <path fill="#fff" d="m535.007 755.427 55.328-117.424L707.76 693.33l-55.328 117.425z"/>
    </clipPath>
    <radialGradient id="c" cx="0" cy="0" r="1" gradientUnits="userSpaceOnUse" gradientTransform="matrix(92.7624 31.36803 -251.27769 743.08534 820.131 393.392)">
      <stop offset=".067" stop-color="#9168C0"/>
      <stop offset=".343" stop-color="#5684D1"/>
      <stop offset=".672" stop-color="#1BA1E3"/>
    </radialGradient>
  </defs>
</svg>
